<svg id="图层_1" xmlns="http://www.w3.org/2000/svg" viewBox="0 0 650 200"><style>.st1{fill:#231815}</style><path d="M10.3 47.4h84.6c5.7 0 10.3 4.6 10.3 10.3v84.6c0 9.2-11.1 13.8-17.6 7.3L3 65c-6.4-6.5-1.9-17.6 7.3-17.6z" fill="#0089e2"/><path class="st1" d="M294.8 47.4h-52.9c-6.9 0-12.4 5.6-12.4 12.4v90.1c0 1.5 1.2 2.6 2.6 2.6h7.8c1.5 0 2.6-1.2 2.6-2.6v-40.4h52.2c6.9 0 12.4-5.6 12.4-12.4V59.9c.2-6.9-5.4-12.5-12.3-12.5zm-.7 45.7c0 1.8-1.4 3.2-3.2 3.2h-48.3V63.8c0-1.8 1.4-3.2 3.2-3.2h45c1.8 0 3.2 1.4 3.2 3.2v29.3zM441.7 47.4h-52.9c-6.9 0-12.4 5.6-12.4 12.4v90.1c0 1.5 1.2 2.6 2.6 2.6h7.8c1.5 0 2.6-1.2 2.6-2.6v-40.4h52.2c6.9 0 12.4-5.6 12.4-12.4V59.9c.2-6.9-5.4-12.5-12.3-12.5zm-.7 45.7c0 1.8-1.4 3.2-3.2 3.2h-48.3V63.8c0-1.8 1.4-3.2 3.2-3.2h45c1.8 0 3.2 1.4 3.2 3.2v29.3zM637.6 47.4h-52.9c-6.9 0-12.4 5.6-12.4 12.4v90.1c0 1.5 1.2 2.6 2.6 2.6h7.8c1.5 0 2.6-1.2 2.6-2.6v-40.4h52.2c6.9 0 12.4-5.6 12.4-12.4V59.9c.1-6.9-5.5-12.5-12.3-12.5zm-.7 45.7c0 1.8-1.4 3.2-3.2 3.2h-48.3V63.8c0-1.8 1.4-3.2 3.2-3.2h45c1.8 0 3.2 1.4 3.2 3.2v29.3zM213 143.1l-26.5-86.9c-1.6-5.3-6.4-8.8-11.9-8.8h-8.2c-5.5 0-10.3 3.5-11.9 8.8L128 143.1c-.5 1.7-.3 3.5.5 5s2.2 2.7 3.9 3.2l3.7 1.1c.3.1.5.1.8.1 1.2 0 2.2-.8 2.5-1.9l12.6-41.2h37l12.6 41.2c.3 1.1 1.4 1.9 2.5 1.9.3 0 .5 0 .8-.1l3.7-1.1c3.5-1 5.4-4.7 4.4-8.2zm-57.1-46.7l10.2-33.5c.4-1.4 1.7-2.3 3.1-2.3h2.4c1.4 0 2.7.9 3.1 2.3L185 96.4h-29.1zM345.7 47.4h-7.8c-1.5 0-2.6 1.2-2.6 2.6v99.9c0 1.5 1.2 2.6 2.6 2.6h7.8c1.5 0 2.6-1.2 2.6-2.6V50.1c.1-1.5-1.1-2.7-2.6-2.7zM550.4 47.4h-7.8c-1.5 0-2.6 1.2-2.6 2.6v41.4h-53.5V50.1c0-1.5-1.2-2.6-2.6-2.6H476c-1.5 0-2.6 1.2-2.6 2.6V150c0 1.5 1.2 2.6 2.6 2.6h7.8c1.5 0 2.6-1.2 2.6-2.6v-45.3h53.5V150c0 1.5 1.2 2.6 2.6 2.6h7.8c1.5 0 2.6-1.2 2.6-2.6V50.1c.2-1.5-1-2.7-2.5-2.7z"/><path d="M2 141.2l29.5-29.5c2.6-2.6 6.8-2.6 9.4 0l29.5 29.5c4.2 4.2 1.2 11.4-4.7 11.4H6.8c-6.1 0-9-7.2-4.8-11.4z" fill="#19c58c"/></svg>