<?xml version="1.0" encoding="utf-8"?>
<!-- Generator: Adobe Illustrator 27.1.1, SVG Export Plug-In . SVG Version: 6.00 Build 0)  -->
<svg version="1.1" id="图层_1" xmlns="http://www.w3.org/2000/svg" xmlns:xlink="http://www.w3.org/1999/xlink" x="0px" y="0px"
	 viewBox="0 0 650 200" style="enable-background:new 0 0 650 200;" xml:space="preserve">
<style type="text/css">
	.st0{fill:#0089E2;}
	.st1{fill:#231815;}
	.st2{fill:#19C58C;}
</style>
<g>
	<g>
		<path class="st0" d="M10.3,47.4h84.6c5.7,0,10.3,4.6,10.3,10.3v84.6c0,9.2-11.1,13.8-17.6,7.3L3,65C-3.4,58.5,1.1,47.4,10.3,47.4z
			"/>
	</g>
	<g>
		<path class="st1" d="M294.8,47.4h-52.9c-6.9,0-12.4,5.6-12.4,12.4v90.1c0,1.5,1.2,2.6,2.6,2.6h7.8c1.5,0,2.6-1.2,2.6-2.6v-40.4
			h52.2c6.9,0,12.4-5.6,12.4-12.4V59.9C307.3,53,301.7,47.4,294.8,47.4z M294.1,93.1c0,1.8-1.4,3.2-3.2,3.2h-48.3V63.8
			c0-1.8,1.4-3.2,3.2-3.2h45c1.8,0,3.2,1.4,3.2,3.2V93.1z"/>
		<path class="st1" d="M441.7,47.4h-52.9c-6.9,0-12.4,5.6-12.4,12.4v90.1c0,1.5,1.2,2.6,2.6,2.6h7.8c1.5,0,2.6-1.2,2.6-2.6v-40.4
			h52.2c6.9,0,12.4-5.6,12.4-12.4V59.9C454.2,53,448.6,47.4,441.7,47.4z M441,93.1c0,1.8-1.4,3.2-3.2,3.2h-48.3V63.8
			c0-1.8,1.4-3.2,3.2-3.2h45c1.8,0,3.2,1.4,3.2,3.2V93.1z"/>
		<path class="st1" d="M637.6,47.4h-52.9c-6.9,0-12.4,5.6-12.4,12.4v90.1c0,1.5,1.2,2.6,2.6,2.6h7.8c1.5,0,2.6-1.2,2.6-2.6v-40.4
			h52.2c6.9,0,12.4-5.6,12.4-12.4V59.9C650,53,644.4,47.4,637.6,47.4z M636.9,93.1c0,1.8-1.4,3.2-3.2,3.2h-48.3V63.8
			c0-1.8,1.4-3.2,3.2-3.2h45c1.8,0,3.2,1.4,3.2,3.2V93.1z"/>
		<path class="st1" d="M213,143.1l-26.5-86.9c-1.6-5.3-6.4-8.8-11.9-8.8h-8.2c-5.5,0-10.3,3.5-11.9,8.8l-26.5,86.9
			c-0.5,1.7-0.3,3.5,0.5,5c0.8,1.5,2.2,2.7,3.9,3.2l3.7,1.1c0.3,0.1,0.5,0.1,0.8,0.1c1.2,0,2.2-0.8,2.5-1.9l12.6-41.2H189l12.6,41.2
			c0.3,1.1,1.4,1.9,2.5,1.9c0.3,0,0.5,0,0.8-0.1l3.7-1.1C212.1,150.3,214,146.6,213,143.1z M155.9,96.4l10.2-33.5
			c0.4-1.4,1.7-2.3,3.1-2.3h2.4c1.4,0,2.7,0.9,3.1,2.3L185,96.4H155.9z"/>
		<path class="st1" d="M345.7,47.4h-7.8c-1.5,0-2.6,1.2-2.6,2.6v99.9c0,1.5,1.2,2.6,2.6,2.6h7.8c1.5,0,2.6-1.2,2.6-2.6V50.1
			C348.4,48.6,347.2,47.4,345.7,47.4L345.7,47.4z"/>
		<path class="st1" d="M550.4,47.4h-7.8c-1.5,0-2.6,1.2-2.6,2.6v41.4h-53.5V50.1c0-1.5-1.2-2.6-2.6-2.6H476c-1.5,0-2.6,1.2-2.6,2.6
			v99.9c0,1.5,1.2,2.6,2.6,2.6h7.8c1.5,0,2.6-1.2,2.6-2.6v-45.3h53.5v45.3c0,1.5,1.2,2.6,2.6,2.6h7.8c1.5,0,2.6-1.2,2.6-2.6V50.1
			C553.1,48.6,551.9,47.4,550.4,47.4z"/>
	</g>
	<path class="st2" d="M2,141.2l29.5-29.5c2.6-2.6,6.8-2.6,9.4,0l29.5,29.5c4.2,4.2,1.2,11.4-4.7,11.4l-58.9,0
		C0.7,152.6-2.2,145.4,2,141.2z"/>
</g>
</svg>
